<svg id="surface76780" xmlns="http://www.w3.org/2000/svg" width="67" height="67" viewBox="0 0 67 67">
  <rect id="Retângulo_9" data-name="Retângulo 9" width="67" height="67" fill="#fff"/>
  <path id="Caminho_5" data-name="Caminho 5" d="M33,6a2.66,2.66,0,0,0-1.169.271L5.178,19.311a2.125,2.125,0,0,0-1.052,1.222,2.5,2.5,0,0,0-.02,1.594A2.035,2.035,0,0,0,6,23.607h3.18v2.071a2.068,2.068,0,0,0,1.036,1.784V47.429H9.179A2.075,2.075,0,0,0,7.108,49.5v3.107H6.072A2.075,2.075,0,0,0,4,54.679v4.143a1.038,1.038,0,0,0,1.036,1.036H60.965A1.038,1.038,0,0,0,62,58.822V54.679a2.075,2.075,0,0,0-2.071-2.071H58.894V49.5a2.075,2.075,0,0,0-2.071-2.071H55.787V27.463a2.068,2.068,0,0,0,1.036-1.784V23.607H60a1.917,1.917,0,0,0,1.493-.736A2.418,2.418,0,0,0,62,21.362a2.26,2.26,0,0,0-1.194-2.051L34.166,6.275A2.643,2.643,0,0,0,33,6Zm0,2.071a.588.588,0,0,1,.255.061L59.873,21.151a.372.372,0,0,1,.057.21.4.4,0,0,1-.032.174H6.084s.008-.02,0-.045a.49.49,0,0,1,.016-.32L32.742,8.136A.619.619,0,0,1,33,8.075ZM11.251,23.607h6.214v2.071H11.251Zm8.286,0h2.071v2.071a2.068,2.068,0,0,0,1.036,1.784V47.429H18.5V27.463a2.068,2.068,0,0,0,1.036-1.784Zm4.143,0h6.214v2.071H23.679Zm8.286,0h2.071v2.071a2.068,2.068,0,0,0,1.036,1.784V47.429H30.929V27.463a2.068,2.068,0,0,0,1.036-1.784Zm4.143,0h6.214v2.071H36.108Zm8.286,0h2.071v2.071A2.068,2.068,0,0,0,47.5,27.463V47.429H43.358V27.463a2.068,2.068,0,0,0,1.036-1.784Zm4.143,0h6.214v2.071H48.537ZM12.286,27.75h4.143V47.429H12.286Zm12.429,0h4.143V47.429H24.715Zm12.429,0h4.143V47.429H37.144Zm12.429,0h4.143V47.429H49.572ZM9.179,49.5H56.822v4.143a1.038,1.038,0,0,0,1.036,1.036H59.93v3.107H6.072V54.679H45.429a1.036,1.036,0,1,0,0-2.071H9.179Zm40.393,3.107a1.036,1.036,0,0,0,0,2.071h4.143a1.036,1.036,0,0,0,0-2.071Zm0,0" transform="translate(0.142 0.214)" fill="#54b689"/>
</svg>
