<svg xmlns="http://www.w3.org/2000/svg" width="61.553" height="51.935" viewBox="0 0 61.553 51.935">
  <path id="Caminho_6" data-name="Caminho 6" d="M12.809,13A4.823,4.823,0,0,0,8,17.809V64.935H69.553V17.809A4.823,4.823,0,0,0,64.744,13Zm0,1.924H64.744a2.872,2.872,0,0,1,2.885,2.885v2.885a.962.962,0,0,0,0,1.924V63.012H9.924V22.618a.962.962,0,1,0,0-1.924V17.809A2.872,2.872,0,0,1,12.809,14.924Zm.962,5.771a.962.962,0,1,0,.962.962A.964.964,0,0,0,13.771,20.694Zm3.847,0a.962.962,0,1,0,.962.962A.964.964,0,0,0,17.618,20.694Zm3.847,0a.962.962,0,1,0,.962.962A.964.964,0,0,0,21.465,20.694Zm3.847,0a.962.962,0,1,0,.962.962A.964.964,0,0,0,25.312,20.694Zm3.847,0a.962.962,0,1,0,.962.962A.964.964,0,0,0,29.159,20.694Zm3.847,0a.962.962,0,1,0,.962.962A.964.964,0,0,0,33.006,20.694Zm3.847,0a.962.962,0,1,0,.962.962A.964.964,0,0,0,36.853,20.694Zm3.847,0a.962.962,0,1,0,.962.962A.964.964,0,0,0,40.7,20.694Zm3.847,0a.962.962,0,1,0,.962.962A.964.964,0,0,0,44.547,20.694Zm3.847,0a.962.962,0,1,0,.962.962A.964.964,0,0,0,48.394,20.694Zm3.847,0a.962.962,0,1,0,.962.962A.964.964,0,0,0,52.241,20.694Zm3.847,0a.962.962,0,1,0,.962.962A.964.964,0,0,0,56.088,20.694Zm3.847,0a.962.962,0,1,0,.962.962A.964.964,0,0,0,59.935,20.694Zm3.847,0a.962.962,0,1,0,.962.962A.964.964,0,0,0,63.782,20.694ZM42.12,30.312,32.044,56.279h1.927L44.047,30.312ZM27.517,35.4,20.1,42.815l7.412,7.412,1.36-1.36-6.052-6.052,6.052-6.052Zm22.519,0-1.36,1.36,6.052,6.052-6.052,6.052,1.36,1.36,7.412-7.412Zm0,0" transform="translate(-8 -13)" fill="#54b689"/>
</svg>
