<svg xmlns="http://www.w3.org/2000/svg" xmlns:xlink="http://www.w3.org/1999/xlink" width="82" height="82" viewBox="0 0 82 82">
  <defs>
    <clipPath id="clip-path">
      <circle id="Elipse_2" data-name="Elipse 2" cx="41" cy="41" r="41" fill="#54b689"/>
    </clipPath>
  </defs>
  <g id="Grupo_de_m치scara_1" data-name="Grupo de m치scara 1" clip-path="url(#clip-path)">
    <g id="surface66150">
      <rect id="Ret칙ngulo_6" data-name="Ret칙ngulo 6" width="82" height="82" fill="#54b689"/>
      <path id="Caminho_3" data-name="Caminho 3" d="M46.6,13.8a32.782,32.782,0,0,0-7.949,64.591,4.768,4.768,0,0,1-.251-1.6V71.189H34.279a5.7,5.7,0,0,1-5.205-2.76c-1.078-1.991-1.26-5.04-3.924-6.9-.79-.619-.192-1.329.721-1.233a8.588,8.588,0,0,1,4.388,3.342c1.3,1.714,1.922,2.1,4.362,2.1a31.488,31.488,0,0,0,4.623-.331,10.274,10.274,0,0,1,4.34-5.365c-10.923-1.121-16.138-6.556-16.138-13.934A13.408,13.408,0,0,1,31.1,37.274c-.753-2.573-1.7-7.81.294-9.807a11.411,11.411,0,0,1,8.6,4.047,24.844,24.844,0,0,1,15.957.005,11.409,11.409,0,0,1,8.6-4.052c2,2,1.041,7.26.283,9.823a13.4,13.4,0,0,1,3.625,8.819c0,7.373-5.2,12.8-16.106,13.934,3,1.564,5.189,5.963,5.189,9.278v7.474a4.86,4.86,0,0,1-.1.731A32.781,32.781,0,0,0,46.6,13.8Zm0,0" transform="translate(-5.6 -5.6)" fill="#fff"/>
    </g>
  </g>
</svg>
